<svg width="24" height="25" viewBox="0 0 24 25" fill="none" xmlns="http://www.w3.org/2000/svg">
<path d="M21.0041 11.6706C20.7389 11.6706 20.4845 11.776 20.297 11.9635C20.1094 12.151 20.0041 12.4054 20.0041 12.6706V15.2606L13.7141 8.9606C13.6211 8.86687 13.5105 8.79247 13.3887 8.7417C13.2668 8.69094 13.1361 8.6648 13.0041 8.6648C12.8721 8.6648 12.7414 8.69094 12.6195 8.7417C12.4977 8.79247 12.3871 8.86687 12.2941 8.9606L9.00409 12.2606L3.71409 6.9606C3.52579 6.77229 3.27039 6.6665 3.00409 6.6665C2.73779 6.6665 2.4824 6.77229 2.29409 6.9606C2.10579 7.1489 2 7.40429 2 7.6706C2 7.9369 2.10579 8.19229 2.29409 8.3806L8.29409 14.3806C8.38705 14.4743 8.49766 14.5487 8.61951 14.5995C8.74137 14.6503 8.87208 14.6764 9.00409 14.6764C9.1361 14.6764 9.26681 14.6503 9.38867 14.5995C9.51053 14.5487 9.62113 14.4743 9.71409 14.3806L13.0041 11.0806L18.5941 16.6706H16.0041C15.7389 16.6706 15.4845 16.776 15.297 16.9635C15.1094 17.151 15.0041 17.4054 15.0041 17.6706C15.0041 17.9358 15.1094 18.1902 15.297 18.3777C15.4845 18.5652 15.7389 18.6706 16.0041 18.6706H21.0041C21.1348 18.669 21.2639 18.6418 21.3841 18.5906C21.6284 18.4891 21.8226 18.2949 21.9241 18.0506C21.9753 17.9304 22.0025 17.8013 22.0041 17.6706V12.6706C22.0041 12.4054 21.8987 12.151 21.7112 11.9635C21.5237 11.776 21.2693 11.6706 21.0041 11.6706Z" fill="#FF4D4F"/>
</svg>
