<svg width="40" height="40" viewBox="0 0 40 40" fill="none" xmlns="http://www.w3.org/2000/svg">
<path d="M20.0003 1.6665L35.8337 10.8332V29.1665L20.0003 38.3332L4.16699 29.1665V10.8332L20.0003 1.6665ZM20.0003 24.9998C21.3264 24.9998 22.5982 24.4731 23.5359 23.5354C24.4735 22.5977 25.0003 21.3259 25.0003 19.9998C25.0003 18.6738 24.4735 17.402 23.5359 16.4643C22.5982 15.5266 21.3264 14.9998 20.0003 14.9998C18.6742 14.9998 17.4025 15.5266 16.4648 16.4643C15.5271 17.402 15.0003 18.6738 15.0003 19.9998C15.0003 21.3259 15.5271 22.5977 16.4648 23.5354C17.4025 24.4731 18.6742 24.9998 20.0003 24.9998V24.9998Z" fill="#0093FF"/>
</svg>
