<svg width="40" height="40" viewBox="0 0 40 40" fill="none" xmlns="http://www.w3.org/2000/svg">
<path d="M15.5503 19.1669H19.167C21.1561 19.1669 23.0638 19.9571 24.4703 21.3636C25.8768 22.7701 26.667 24.6778 26.667 26.6669H14.9987L15.0003 28.3336H28.3337V26.6669C28.3284 24.8935 27.816 23.1586 26.857 21.6669H31.667C33.2424 21.6665 34.7857 22.1126 36.1179 22.9537C37.4501 23.7947 38.5165 24.9961 39.1937 26.4186C35.252 31.6203 28.8703 35.0003 21.667 35.0003C17.0653 35.0003 13.167 34.0169 10.0003 32.2919V16.7853C12.028 17.0757 13.9428 17.8974 15.5503 19.1669V19.1669ZM6.66699 15.0003C7.07521 15.0003 7.46922 15.1502 7.77428 15.4214C8.07934 15.6927 8.27423 16.0665 8.32199 16.4719L8.33366 16.6669V31.6669C8.33366 32.1089 8.15806 32.5329 7.8455 32.8454C7.53294 33.158 7.10902 33.3336 6.66699 33.3336H3.33366C2.89163 33.3336 2.46771 33.158 2.15515 32.8454C1.84259 32.5329 1.66699 32.1089 1.66699 31.6669V16.6669C1.66699 16.2249 1.84259 15.801 2.15515 15.4884C2.46771 15.1758 2.89163 15.0003 3.33366 15.0003H6.66699ZM22.7437 5.95859L23.3337 6.55025L23.9237 5.96025C24.31 5.57062 24.7695 5.26113 25.2758 5.04955C25.7821 4.83798 26.3252 4.72849 26.8739 4.72737C27.4226 4.72624 27.9661 4.83351 28.4732 5.04301C28.9804 5.25251 29.4411 5.56011 29.8291 5.94816C30.217 6.33621 30.5245 6.79707 30.7339 7.30427C30.9432 7.81147 31.0503 8.35502 31.049 8.90373C31.0478 9.45244 30.9381 9.99549 30.7264 10.5017C30.5147 11.0079 30.2051 11.4673 29.8153 11.8536L23.3337 18.3336L16.8503 11.8503C16.4607 11.4639 16.1512 11.0044 15.9396 10.4981C15.7281 9.99184 15.6186 9.44876 15.6174 8.90005C15.6163 8.35134 15.7236 7.80782 15.9331 7.30067C16.1426 6.79353 16.4502 6.33277 16.8382 5.94483C17.2263 5.55688 17.6871 5.24941 18.1943 5.04005C18.7015 4.8307 19.2451 4.72359 19.7938 4.72486C20.3425 4.72614 20.8856 4.83579 21.3918 5.0475C21.898 5.25922 22.3574 5.56884 22.7437 5.95859V5.95859Z" fill="#259047"/>
</svg>
