<svg width="40" height="40" viewBox="0 0 40 40" fill="none" xmlns="http://www.w3.org/2000/svg">
<path d="M23.3327 23.7527V36.666H6.66602C6.6655 34.6308 7.13088 32.6225 8.02651 30.795C8.92214 28.9675 10.2242 27.3692 11.833 26.1227C13.4418 24.8762 15.3146 24.0146 17.3079 23.6038C19.3012 23.1929 21.3621 23.2439 23.3327 23.7527V23.7527ZM19.9993 21.666C14.4743 21.666 9.99935 17.191 9.99935 11.666C9.99935 6.14102 14.4743 1.66602 19.9993 1.66602C25.5243 1.66602 29.9993 6.14102 29.9993 11.666C29.9993 17.191 25.5243 21.666 19.9993 21.666ZM33.3327 28.3327H38.3327V31.666H33.3327V37.4993L24.9993 29.9993L33.3327 22.4993V28.3327Z" fill="#259047"/>
</svg>
