<svg width="50" height="50" viewBox="0 0 80 80" fill="none" xmlns="http://www.w3.org/2000/svg">
<path d="M40 0C62.08 0 80 17.92 80 40C80 62.08 62.08 80 40 80C17.92 80 0 62.08 0 40C0 17.92 17.92 0 40 0ZM16.092 53.664C21.964 62.424 30.78 68 40.64 68C50.496 68 59.316 62.428 65.184 53.664C58.527 47.4424 49.7518 43.9872 40.64 44C31.5268 43.9862 22.7501 47.4414 16.092 53.664V53.664ZM40 36C43.1826 36 46.2348 34.7357 48.4853 32.4853C50.7357 30.2348 52 27.1826 52 24C52 20.8174 50.7357 17.7652 48.4853 15.5147C46.2348 13.2643 43.1826 12 40 12C36.8174 12 33.7652 13.2643 31.5147 15.5147C29.2643 17.7652 28 20.8174 28 24C28 27.1826 29.2643 30.2348 31.5147 32.4853C33.7652 34.7357 36.8174 36 40 36V36Z" fill="#D9D9D9"/>
</svg>
