<svg width="18" height="18" viewBox="0 0 18 18" fill="none" xmlns="http://www.w3.org/2000/svg">
<path fill-rule="evenodd" clip-rule="evenodd" d="M7 2.00023C5.67392 2.00023 4.40215 2.52702 3.46447 3.4647C2.52678 4.40238 2 5.67415 2 7.00023C2 8.32632 2.52678 9.59808 3.46447 10.5358C4.40215 11.4734 5.67392 12.0002 7 12.0002C8.32608 12.0002 9.59785 11.4734 10.5355 10.5358C11.4732 9.59808 12 8.32632 12 7.00023C12 5.67415 11.4732 4.40238 10.5355 3.4647C9.59785 2.52702 8.32608 2.00023 7 2.00023ZM2.20582e-07 7.00023C2.1098e-06 5.89149 0.263375 4.79861 0.768432 3.81158C1.27349 2.82456 2.00578 1.97162 2.90501 1.32301C3.80423 0.674396 4.84467 0.248664 5.94064 0.0808701C7.03661 -0.0869239 8.15676 0.00801983 9.20885 0.357883C10.2609 0.707746 11.2149 1.30252 11.9921 2.09323C12.7693 2.88394 13.3476 3.84796 13.6794 4.90591C14.0111 5.96386 14.0868 7.08548 13.9001 8.1784C13.7135 9.27133 13.27 10.3043 12.606 11.1922L17.707 16.2922C17.8946 16.4797 18.0001 16.7341 18.0002 16.9994C18.0003 17.2646 17.895 17.5191 17.7075 17.7067C17.52 17.8944 17.2656 17.9998 17.0004 17.9999C16.7351 18 16.4806 17.8947 16.293 17.7072L11.193 12.6072C10.1525 13.3856 8.91592 13.8589 7.62167 13.9743C6.32741 14.0897 5.02658 13.8426 3.86481 13.2606C2.70304 12.6787 1.72618 11.7848 1.0436 10.6791C0.361026 9.57346 -0.000325925 8.29962 2.20582e-07 7.00023V7.00023Z" fill="#777675"/>
</svg>
