<svg width="40" height="40" viewBox="0 0 40 40" fill="none" xmlns="http://www.w3.org/2000/svg">
<path d="M29.3636 9.94675L31.7853 7.52508L34.1419 9.88175L31.7203 12.3034C34.1132 15.2987 35.2685 19.0965 34.9487 22.917C34.629 26.7374 32.8586 30.2904 30.0011 32.8463C27.1436 35.4022 23.4159 36.7669 19.5836 36.6602C15.7513 36.5535 12.1053 34.9835 9.39438 32.2726C6.68349 29.5617 5.11348 25.9157 5.00679 22.0834C4.90011 18.2511 6.26485 14.5234 8.82073 11.6659C11.3766 8.80842 14.9296 7.038 18.75 6.71828C22.5705 6.39856 26.3683 7.5538 29.3636 9.94675V9.94675ZM18.3336 13.3334V23.3334H21.6669V13.3334H18.3336ZM13.3336 1.66675H26.6669V5.00008H13.3336V1.66675Z" fill="#259047"/>
</svg>
