<svg width="24" height="24" viewBox="0 0 24 24" fill="none" xmlns="http://www.w3.org/2000/svg">
<path d="M7 19C7.5 18.5 16.5 18.5 17 19C17.5 19.5 19 22 19 22H5C5 22 6.5 19.5 7 19ZM12 17C9.87827 17 7.84344 16.1571 6.34315 14.6569C4.84285 13.1566 4 11.1217 4 9C4 6.87827 4.84285 4.84344 6.34315 3.34315C7.84344 1.84285 9.87827 1 12 1C14.1217 1 16.1566 1.84285 17.6569 3.34315C19.1571 4.84344 20 6.87827 20 9C20 11.1217 19.1571 13.1566 17.6569 14.6569C16.1566 16.1571 14.1217 17 12 17Z" fill="#393938"/>
</svg>
