<svg width="40" height="40" viewBox="0 0 40 40" fill="none" xmlns="http://www.w3.org/2000/svg">
<path d="M15.5503 19.1672H19.167C21.1561 19.1672 23.0638 19.9573 24.4703 21.3639C25.8768 22.7704 26.667 24.678 26.667 26.6672H14.9987L15.0003 28.3338H28.3337V26.6672C28.3284 24.8938 27.816 23.1589 26.857 21.6672H31.667C33.2424 21.6667 34.7857 22.1129 36.1179 22.9539C37.4501 23.7949 38.5165 24.9963 39.1937 26.4188C35.252 31.6205 28.8703 35.0005 21.667 35.0005C17.0653 35.0005 13.167 34.0172 10.0003 32.2922V16.7855C12.028 17.076 13.9428 17.8976 15.5503 19.1672V19.1672ZM6.66699 15.0005C7.07521 15.0005 7.46922 15.1504 7.77428 15.4217C8.07934 15.693 8.27423 16.0667 8.32199 16.4722L8.33366 16.6672V31.6672C8.33366 32.1092 8.15806 32.5331 7.8455 32.8457C7.53294 33.1582 7.10902 33.3338 6.66699 33.3338H3.33366C2.89163 33.3338 2.46771 33.1582 2.15515 32.8457C1.84259 32.5331 1.66699 32.1092 1.66699 31.6672V16.6672C1.66699 16.2251 1.84259 15.8012 2.15515 15.4887C2.46771 15.1761 2.89163 15.0005 3.33366 15.0005H6.66699ZM22.7437 5.95883L23.3337 6.5505L23.9237 5.9605C24.31 5.57086 24.7695 5.26137 25.2758 5.0498C25.7821 4.83822 26.3252 4.72873 26.8739 4.72761C27.4226 4.72649 27.9661 4.83375 28.4732 5.04325C28.9804 5.25275 29.4411 5.56036 29.8291 5.94841C30.217 6.33646 30.5245 6.79731 30.7339 7.30451C30.9432 7.81171 31.0503 8.35527 31.049 8.90398C31.0478 9.45268 30.9381 9.99574 30.7264 10.502C30.5147 11.0082 30.2051 11.4676 29.8153 11.8538L23.3337 18.3338L16.8503 11.8505C16.4607 11.4641 16.1512 11.0046 15.9396 10.4984C15.7281 9.99208 15.6186 9.449 15.6174 8.90029C15.6163 8.35159 15.7236 7.80806 15.9331 7.30092C16.1426 6.79378 16.4502 6.33301 16.8382 5.94507C17.2263 5.55713 17.6871 5.24965 18.1943 5.0403C18.7015 4.83094 19.2451 4.72383 19.7938 4.72511C20.3425 4.72639 20.8856 4.83603 21.3918 5.04775C21.898 5.25947 22.3574 5.56908 22.7437 5.95883V5.95883Z" fill="#259047"/>
</svg>
